<svg xmlns="http://www.w3.org/2000/svg" viewBox="0 0 48 48">
  <rect width="48" height="48" rx="9" fill="#f6f1e7"/>
  <path fill="#23201b" d="M9.2 42.6 10.3 31.6H9.5v-1.8C9.7 21 16.2 12 24 7c7.8 5 14.3 14 14.5 22.8v1.8h-.8l1.1 11Z"/>
  <rect x="21.2" y="4.4" width="5.6" height="2.9" rx=".7" fill="#23201b"/>
  <g fill="none" stroke="#f6f1e7" stroke-width="1.3" stroke-linecap="round">
    <path d="M11.6 37.2Q24 38.6 36.4 37.2"/>
    <path d="M11.6 25.4Q24 26.8 36.4 25.4"/>
    <path d="M13.4 20.3Q24 21.5 34.6 20.3"/>
    <path d="M16 15.8Q24 16.8 32 15.8"/>
  </g>
  <path fill="#f6f1e7" d="M20.6 42.8 20.9 33.2h6.2l.3 9.6Z"/>
  <rect x="6" y="43.6" width="17.6" height="3.4" rx="1" fill="#b07a3f"/>
  <rect x="24.4" y="43.6" width="17.6" height="3.4" rx="1" fill="#7d8a5c"/>
</svg>
